<svg fill="none" height="94" viewBox="0 0 125 94" width="125" xmlns="http://www.w3.org/2000/svg"><path d="m93.2 3.8c-1.8-.6-6.9-2.2-8.5-3.4.2 1.4 1.6 1.9 1.8 2.8.4.9 0 2.3.2 3.4 1.1-1.3 3.7-1 4.8-2.3z" fill="#efefef"/><path d="m90.6 5.1c-2.1-.8-7.8-2.4-9.6-3.8.2 1.6 1.7 2.1 2 3.1.4 1.1-.9 2.7-.7 3.9 1.2-1.4 5.1-1.1 6.3-2.6z" fill="#007fa4"/><path d="m23.4 30.6c-2.4-.6-2.6-3.5-2.6-5.2 0-2.3.3-3.9 2.3-5.4-1.8 2 .6 5.9 3.6 6.5" fill="#007fa4"/><path d="m43.6 12.2c2.9-1.4 7.6-4 10.7-2.7 4.1 1.6 10.5 3.5 14.9 4.4-1.3 2.2-8.3 1.2-10.7.8-1.7-.3-5.2-1.6-6.4-1.5-2.7-.9-5.9-1.6-8.5-1 2.2-1 0 0 0 0z" fill="#007fa4"/><path d="m43.6 12.2 4.2-.9c-2.5 1.6-4.9 3.1-7.4 4.7 2.2.3 5.5-.8 5.9 1.6.9 5.3-.8 11.7-5.6 14.5-2.4-1 .5-2.8 1.5-4.8 1.1-2.1 1.7-4.4 1.9-6.7 0-1.1 0-2.1 0-3.1-1.9 0-3.7.2-5.5.5-2.4.3-4.7 1-6.9 2 3.6-3.2 7.6-5.8 11.9-7.8z" fill="#007fa4"/><path d="m49.3 32.2c-3 1.9-5.4 2.3-8.4-.3 3.6-3.7 6.3-8.5 5.4-13.8-.4-2.4-3.7-1.8-5.9-2.1 2.2-1.4 5.7-4.8 8.3-4.7 2 .2 2.9.2 4.5 1.1 4.5 2.5 8.5 3.1 13.6 1.7-1.3 3-1.1 5.8.4 8.8.7 1.4 2.6 2.5 3.7 3.6 1.6 1.7 1.8 3.9 3 5.9.7 1 1.4 2.6 2.4 3.2 1.5.9-.3 2.2-.8 3.7-1.2 3-2.8 5.7-5 8-4.7 5.1-10 8.5-17.4 10.8-1.8.6-3.3 2.5-5.5 3.7-2.1 1.2-6.8 1.9-7.9-1 5.9.3 9-2.4 14-4.6 4.2-1.9 7.8-4.8 10.2-8.7 1.7-2.7 4.2-7.6 3.2-10.7-.8-2.7-1.7-5.4-2.6-8-.5 2.6-1.2 5.3-1.9 8-3.1-5.7-7.7-7.7-13.3-4.6-1.7 1.1 0 0 0 0z" fill="#007fa4"/><path d="m46.5 32.5c1.8-.3 4.4-2 6.1-2.7 3.1-1.3 5.9.7 8.3 2.9 3.1 2.9 4.1-2.6 5.2.9s2.8 7.8-.2 10.1c-6.4 5.2-7.8-2.3-19.2-8.2-2.6-1.4-2.6-.8-7.7-2.9 1.1-.9 1.6-1.5 2.8-.5 1.3 1.1 1.8.9 3.5.7.3-.1 1.2-.3 1.2-.3z" fill="#efefef"/><path d="m39.1 56.6c.9-1.9 3.6-.5 4 1-1.3-.7-2.5-.5-3.8.3-.2-.4-.3-.9-.2-1.3 0-.2 0 0 0 0z" fill="#efefef"/><path d="m43.1 57.6c1.2.5 3.8-.6 5.1-1.8.6-.4.4-.9 1.5-.1 1.3 1 3.4-1.2 4.6-2.5 6-6.4 7.9-16.1 10.2-24.5 1 2.9 2.9 5.9 3.8 8.7 1.2 3.7-4.2 10.3-6.5 13-1.7 1.8-3.6 3.4-5.8 4.6-2.6 1.4-5.2 3-7.8 4.3-2.8 1.5-5.9 2.1-8.9 1.5-1.8-3.1 1.5-4.5 3.8-3.2z" fill="#007fa4"/><path d="m43.6 57.9c-.5-.2-.6-.2-.7-.7.5-.2 6.1-3 6.1-1.8.3 1.3-4.7 2.5-5.4 2.5z" fill="#efefef"/><path d="m48.2 55.2c.6.3.3.1 0 0z" fill="#ccc"/><path d="m51.4 58.8c-.7.8-1.5 1.4-2.3 2 3-3.9 7.7-4.3 12.1-6.6 4.8-2.5 9.3-6 12.2-10.7 1.2-2 2.2-4.2 2.8-6.4.4-1.4-3.6-4.8-4.4-6.8-1.3-3-4.1-4.9-5.3-8.1-1.1-2.9-1.2-6.7.8-8.8-.5 4.9.9 9.6 4.7 12.9.7.6 2.5 1.2 1.9 2.1-.6 1 1.3 2.8 1.8 3.6 1.9 2.6 3.4 3.4 2.7 6.6-2.9 13.1-14.5 19.1-27 20.2-.8.8 0 0 0 0z" fill="#007fa4"/><path d="m75 14.1c1.7-1.3 5.9-7.9 7.8-7.9-1.6 2.6-9.7 14-1.1 11.7-1.3 1.5-2.6 3.1-3.7 4.7-1.4-1.7-5.9-6.5-3-8.2z" fill="#007fa4"/><path d="m75.2 12.3c.9 1 .7 2-.5 2.6 0-.3.1-.7.1-1 0 1 .1 2.1.4 3.1.6 2.6 4.7 6.9 3.1 9.1-1.8 2.6-3.3 2.8-6.3.3-2-1.7-3.5-4-4.3-6.5-.6-2.3-2.1-7 .9-7.2 2.2-.1 4.4-.3 6.6-.4z" fill="#cbdb2f"/><path d="m78 22.6c1.8-2.5 3.8-5 5.9-7.3-4.2 5.7-6.1 13.6-1.2 19.5.9 1.2 2.1 2.3 3.3 3.2 2.4-.6 4.8-.9 7.3-1 4.9-.2 9.8.7 14.4 2.5-2.9 4-6.3-.3-10.2-1-4.1-.8-8.4.1-12.2 1.8-2.4 1-2.9-.5-4.6-2.3-1.4-1.5-2.7-3-4-4.6-.7-1-3.9-4.2-3.2-5.3 1.3-2 3.1-3.6 4.5-5.5 1.2-1.6 0 0 0 0z" fill="#007fa4"/><g fill="#efefef"><path d="m88.8 5.3c-.2-.2-.3-.4-.4-.6 0-.2 4.3-.8 4.7-.9.2-.1 1 2.7 1.3 3.2 1.1 2.1 2.3 3.5 4.6 4.2-3 .5-1.8 1.1-4.6-2.1-.6-.7-1.8-2.4-2.4-2.4-1 .1-2.3-1.4-3.2-1.4z"/><path d="m108.3 31.3c-1-.2-1.9-.2-2.8 0 .6-1.8.5-3.7-.2-5.6 2 1.3 3 3.2 3 5.6z"/><path d="m99 26.8c1.8 1.2 3.2 3.1 4.2 5.7l-1.2.6c-.7.6-1.4 1.3-1.9 2 0-2.8-.3-5.6-1.1-8.3z"/><path d="m102.8 26.5c.6-2.4.7-4.9.3-7.4 1.3.6 2.6 1.4 3.9 2.3-.6 1.5-1.7 3.7-4.2 5.1z"/><path d="m101.8 18.7c.1-.3-2.4 4.9-3.3 5.8l-1.4 1.2c.1-2.7-.2-5.5-1-8.3 2 .3 3.9.7 5.7 1.3z"/><path d="m91 17.5-.1-.2h2.8c0 1.7-.3 3.4-.9 5-.4-1.6-1-3.2-1.8-4.8z"/><path d="m96.5 29.8c-.4 2.5.5 4.9 2.1 6.8-5 3-3.8-4.4-2.1-6.8-.3 1.4 0 0 0 0z"/><path d="m77.8 34.7c.1-.3 1.1 1.2 1.5 1.7 2 2.4 5.5 4.3 3.2 6.9-9.5 10.7-10 7.8-12.4 8.8 1.9-3 7.8-11 8.4-14.5.1 0-.7-2.9-.7-2.9z"/></g><path d="m88.2 4.8c.1-.1.2-.1.3-.1l.3-.2 3.2.7c1.4 3.2 3.3 5.2 5.6 6h1.4c.4.1.5 1.2.6 1.4.2.9.2 2.2 0 2.5l-3.5-.7c-.8-.4 0-.9-.8-1.3-2.6-1.6.3 3-1.4.9 0 0 .8.5 2.5.7l-1.9-.3.4.1c.2.4 6.6 1-.4.2-1-.1 2.1.1 3.3-.3l1.9-.6 2-1-.5 1.5c-.2.7-.4 1.3-.5 1.7l-1.3.2c-.6.2-1.2.2-1.6.1l-.9-.4c-.8-.3-2.1-.2-3.8.3-1.2.3-2.6.4-3.6.1s-1.3-.9-1.4-1.5l.1-.7c.1-.2.1-.3.1-.4-.3-.4-.6-.8-1-1.4-.5-.7-1.2-1.1-2-1.2-1.3-.2-2.1-.4-2.4-.5-.1-.1-.3-.1-.4-.2.1-1 1-2.2 2.8-3.6" fill="#007fa4"/><path d="m81.7 17.9c-5.2 1.4-4.4-2.4-2.5-5.6.6-1.1 2.7-8.6 6.1-5.5-5 4.6 1.5 3.3 3.4 5.9.5.7.2 2.3-.6 2.1.5 2.7 5 1.3 6.6 1 2.8-.4 6 .6 9 .2 3.2-.5 4.5-2.7 6.7.4.7 2.5.7 5.3.6 7.9-5-3.9-10.7-6.1-17-6.7-.9-.1-3-.5-3.8 0-2.5 2.6-3.8 6.3-2.4 9.6 1.6 3.7 6.4 12 11.2 8.4 1.8-1.4 2.7-3.3 4.9-4.1 2.8-1 5.9-.3 8.3 1.1-.8.5-2.3.5-2.5 1.4-.7 3.1-1.1 4.5-2 5.5-5.7-2.2-11.3-3-17.1-.9-4.8 1.8-7.9.5-9.3-3-.8-2.1-1-2.7-1.4-5.1-.9-6.2 1-11.1 4-15.2-.8.8-1.4 1.8-2.2 2.6-.2.2 0 0 0 0z" fill="#efefef"/><path d="m105.3 13.1c1 .2 3 1.4 3.9 1.9-2.3 1.3-7.3 1.5-8.7 1 .4-5.1 2.9-3.1 4.7-2.7 1.4.3.1-.2.1-.2z" fill="#007fa4"/><path d="m108.1 14.6c-2.5-.9-4.1-1.1-6.1-2 1.6-.9 4-3.7 5.4-2.1 1.5 1.7 2.5 3.7 3 5.9-.7-.8-.8-1.1-2-1.6-.2-.1-.3-.2-.3-.2z" fill="#003146"/><path d="m88 27.7c8.1-3.5 14.5 16.8 3.5 16.3-3.6-.1-7.7-7.3-2.6-7.3 3.8 0 5.4-3.5 1.5-4.3z" fill="#f26a36"/><path d="m90.3 32.4c.6-1.7 1.6-2.2 3.1-3-.5 2.3-.7 5.2-.8 5.4-1.2-.9-1.5-1-2.3-2.5 0-.2 0 .1 0 .1z" fill="#efefef"/><path d="m97.6 13.6c0 1.6-.8 2.9-1.8 2.9-1.1 0-1.9-1.3-1.9-2.9 0-1.5.8-2.8 1.9-2.8 1 0 1.8 1.3 1.8 2.8z" fill="#fff"/><path d="m97.6 13.6c0 .9-.4 1.6-.9 1.6s-.9-.7-.9-1.6c0-.8.4-1.5.9-1.5s.9.7.9 1.5z" fill="#003146"/><path d="m93.4 10.3c1.2 1.5 3 2.8 4.4 4.1.4-3.4-1.6-4.7-4.4-4.1z" fill="#efefef"/><path d="m44.1 17.5c1.9 2.5.7 6.4-.8 9.9-2.3 5.3-8.7 8.2-11.4 8.2 3.8-5 11.4-9.5 9.2-15.9-5.4-1.2-10.3 5.2-13.3 4 7-6.8 12.6-7.8 16.3-6.2z" fill="#007fa4"/><path d="m37.1 25.7c.4-1.4.9-2.8 1.3-4.1-7.2 3.6-11.7 10.2-13.4 17.9-2-.6-3.1-2-3.5-4.8 2.3 1 1.3 1.3 1.7-1.2s.7-4.5 2.5-7.6c3.8-6.2 14.4-8.3 15.8-5.8 2.7 3.4-.2 10.5-4.8 13-3.7 1.9-4.1 1.7-6.1 3.1-1.5 1.1-4 3.4-4.8 5.1-2.2-3.3 8.6-13.6 11.3-15.6z" fill="#007fa4"/><path d="m29.8 32.9c-1.7 2.3-3 4.6-4.1 7.3-.7 1.9.7-2.1-.7-.7-.7-3.9.1-3.1 2-6.9 2.6-5.3 7-9.7 12.3-12.4-.4 1.5-.3 3.9-1.2 5.2" fill="#007fa4"/><path d="m23 28.7c2.4-5.2 5.6-8.2 11-9.6-3.8 2.1-6.2 4.6-8.5 8.3-2.1 3.3 1.3 11.3-4 7.3.5 3.3 1.5 3.8 3.5 4.4 1.3 1.2-.5 1.2-1.5-.1-2.5-3.5-3.4-8.8-.5-10.3-.7 1.6-1.4 2.6-1.7 4.4.3-1.7 1-2.8 1.7-4.4 1.6-3.6 0 0 0 0z" fill="#007fa4"/><path d="m34.5 34c1.4-.1 4.2.1 5 1.5.4.6-.1 4.1-1 4.1-.3-6.2-8.4-1.5-12.2.7 1.5-1.9 3.8-6.3 8.2-6.3z" fill="#007fa4"/><path d="m26.6 41.8c1.1-3.6 3.1-5.1 6.6-6.1 3.3-.9 5.1.5 5.3 3.9-4.8-.3-9.2 2.3-12.7 5.5-.1-1.5-.6-4.4-.8-6 .2.2.6-.1.8.1.5-1 1.4-.1 2.4-.6-.6 1-1.3 2-1.6 3.2.4-1.2 0 0 0 0z" fill="#007fa4"/><path d="m25.9 45.5c-.8-.2 1.9-3 2.8-3.4 2.3-1.1 7.8-3.2 10-2.5-1.3 2.6-9.9 7-12.8 5.9-.1 0 0 0 0 0z" fill="#efefef"/><path d="m75.3 17.3c-2.7.7-2.7 2.5-1.4 4.7-1.7-1.7-3.5-1.7-5.3 0 .9-1.7 1.4-4-1.3-4.9 2.2.5 4 0 4-2.6.4.9.4 1.8.9 2.8z" fill="#ff0"/><path d="m.9 90.8.9-1.1c1.1 1.2 2.8 2.4 5.2 2.4 3.3 0 4.3-1.9 4.3-3.3 0-4.9-9.9-2.3-9.9-8.1 0-2.7 2.4-4.4 5.4-4.4 2.5 0 4.4.9 5.6 2.3l-.9 1.1c-1.2-1.5-2.9-2.1-4.7-2.1-2.3 0-3.9 1.2-3.9 3 0 4.3 9.9 1.9 9.9 8.1 0 2.1-1.4 4.7-5.9 4.7-2.7 0-4.8-1.1-6-2.6z" fill="#fff"/><path d="m22.8 93.1v-15.2h-5.4v-1.3h12.2v1.3h-5.4v15.2z" fill="#fff"/><path d="m45.3 93.1-1.7-4.1h-8.7l-1.6 4.1h-1.7l6.8-16.5h1.7l6.8 16.5zm-6-15-3.9 9.6h7.8z" fill="#fff"/><path d="m61.5 93.1-4.6-6.9h-3.7v6.9h-1.4v-16.5h6.2c2.8 0 5 1.8 5 4.8s-2.1 4.6-4.6 4.7l4.8 7zm0-11.7c0-2.1-1.4-3.5-3.6-3.5h-4.7v7.1h4.7c2.2 0 3.6-1.5 3.6-3.6z" fill="#fff"/><path d="m69 93.1v-16.5h5.3c5.1 0 8.3 3.7 8.3 8.2 0 4.6-3.2 8.3-8.3 8.3zm12.1-8.3c0-3.8-2.5-6.9-6.8-6.9h-3.9v13.9h3.9c4.3 0 6.8-3.1 6.8-7z" fill="#fff"/><path d="m88 84.8c0-4.8 3.2-8.5 8-8.5s8 3.7 8 8.5c0 4.9-3.2 8.6-8 8.6s-8-3.7-8-8.6zm14.5 0c0-4.1-2.5-7.2-6.5-7.2s-6.5 3-6.5 7.2 2.5 7.3 6.5 7.3 6.5-3.1 6.5-7.3z" fill="#fff"/><path d="m109.4 84.8c0-5.1 3.7-8.5 8.3-8.5 2.8 0 4.8 1.1 6.3 2.8l-1.1.8c-1.2-1.4-3.1-2.3-5.2-2.3-3.8 0-6.8 2.9-6.8 7.2s3 7.3 6.8 7.3c2.3 0 4-1.1 4.9-2v-3.9h-6.2v-1.3h7.6v5.8c-1.4 1.6-3.6 2.7-6.3 2.7-4.6 0-8.3-3.5-8.3-8.6z" fill="#fff"/></svg>