<svg xmlns="http://www.w3.org/2000/svg" viewBox="0 0 476.37 186.18"><defs><style>.cls-1{fill:#e30c34;}.cls-2{fill:#fff;}</style></defs><g id="图层_2" data-name="图层 2"><g id="Layer_2" data-name="Layer 2"><polygon class="cls-1" points="0 46.55 0 139.63 80.62 186.18 161.24 139.63 161.24 46.55 80.62 0 0 46.55"/><polygon class="cls-2" points="80.57 31.08 27.03 61.99 27.03 92.89 53.81 77.43 53.81 139.67 80.57 155.1 80.57 155.1 80.57 61.98 107.34 46.53 80.57 31.08"/><polygon class="cls-2" points="107.49 77.59 107.49 139.63 134.37 124.12 134.37 62.06 107.49 77.59"/><path class="cls-2" d="M235.35,139.44h-19.1V62.52H188.11V46.61h74.37V62.52H235.35Z"/><path class="cls-2" d="M288.83,62.52H271V46.61h17.82Zm0,76.92H271V70.67h17.82Z"/><path class="cls-2" d="M308.44,46.61h36.3c14.26,0,23.05,3.18,29.29,10.69,7.38,8.79,11.33,21.4,11.33,35.66s-3.95,27-11.33,35.66c-6.24,7.51-15.16,10.82-29.29,10.82h-36.3Zm36.3,76.91c14.39,0,21.52-10.06,21.52-30.43s-7.13-30.57-21.52-30.57H327.55v61Z"/><path class="cls-2" d="M443.77,139.44H402V46.61h41.38c24.46,0,30.31,15.91,30.31,24.45,0,7.89-3.56,13.24-12.73,19.1,10.44,6.11,15.41,13.37,15.41,22.54C476.37,123.78,469.87,139.44,443.77,139.44ZM421.1,83.54h20.76c8.78,0,13.5-3.7,13.5-10.45s-4.72-10.57-13.5-10.57H421.1Zm0,40h22.79c9.3,0,14.14-4.2,14.14-12s-4.84-12.09-14.14-12.09H421.1Z"/></g></g></svg>